<?xml version="1.0" encoding="iso-8859-1"?>
<!-- Generator: Adobe Illustrator 19.0.0, SVG Export Plug-In . SVG Version: 6.00 Build 0)  -->
<svg version="1.1" id="Capa_1" xmlns="http://www.w3.org/2000/svg" xmlns:xlink="http://www.w3.org/1999/xlink" x="0px" y="0px"
	 viewBox="0 0 512 512" style="enable-background:new 0 0 512 512;" xml:space="preserve">
<g>
	<g>
		<path d="M433.801,0H78.188c-7.033,0-13.503,4.116-16.481,10.486c-2.98,6.37-1.992,13.974,2.516,19.372l42.201,50.525v355.924
			c0,41.737,33.956,75.692,75.692,75.692h194.188c41.737,0,75.692-33.955,75.692-75.692V18.194C451.997,8.162,443.834,0,433.801,0z
			 M421.967,436.308c0,25.178-20.484,45.662-45.662,45.662H182.116c-25.178,0-45.662-20.483-45.662-45.662V76.092
			c0-4.252-1.5-8.391-4.23-11.664L103.493,30.03h318.474V436.308z"/>
	</g>
</g>
<g>
	<g>
		<path d="M235.001,160.025c8.292,0,15.015-6.723,15.015-15.015s-6.723-15.015-15.015-15.015h-39.408v-28.181h39.408
			c8.292,0,15.015-6.723,15.015-15.015s-6.723-15.015-15.015-15.015h-54.423c-8.292,0-15.015,6.723-15.015,15.015v352.084
			c0,8.293,6.723,15.016,15.015,15.016h54.423c8.292,0,15.015-6.723,15.015-15.015s-6.723-15.015-15.015-15.015h-39.408v-28.516
			h39.408c8.292,0,15.015-6.723,15.015-15.015s-6.723-15.015-15.015-15.015h-39.408v-29.606h39.408
			c8.292,0,15.015-6.723,15.015-15.015s-6.723-15.015-15.015-15.015h-39.408V277.17h39.408c8.292,0,15.015-6.723,15.015-15.015
			s-6.723-15.015-15.015-15.015h-39.408v-28.567h39.408c8.292,0,15.015-6.723,15.015-15.015s-6.723-15.015-15.015-15.015h-39.408
			v-28.517H235.001z"/>
	</g>
</g>
<g>
</g>
<g>
</g>
<g>
</g>
<g>
</g>
<g>
</g>
<g>
</g>
<g>
</g>
<g>
</g>
<g>
</g>
<g>
</g>
<g>
</g>
<g>
</g>
<g>
</g>
<g>
</g>
<g>
</g>
</svg>
